<mxfile host="app.diagrams.net" agent="Mozilla/5.0 (Macintosh; Intel Mac OS X 10.15; rv:132.0) Gecko/20100101 Firefox/132.0" version="24.8.4">
  <diagram name="Page-1" id="OM5tVHbul17-dx8zYvXy">
    <mxGraphModel dx="2390" dy="3867" grid="0" gridSize="10" guides="1" tooltips="1" connect="1" arrows="1" fold="1" page="0" pageScale="1" pageWidth="850" pageHeight="1100" math="0" shadow="0">
      <root>
        <mxCell id="0" />
        <mxCell id="1" parent="0" />
        <mxCell id="Rdy80Uj1urpBOmqLmSxv-177" value="" style="edgeStyle=none;curved=1;rounded=0;orthogonalLoop=1;jettySize=auto;html=1;fontSize=12;startSize=8;endSize=8;" edge="1" parent="1" source="Rdy80Uj1urpBOmqLmSxv-1" target="Rdy80Uj1urpBOmqLmSxv-173">
          <mxGeometry relative="1" as="geometry" />
        </mxCell>
        <mxCell id="Rdy80Uj1urpBOmqLmSxv-178" value="" style="edgeStyle=none;curved=1;rounded=0;orthogonalLoop=1;jettySize=auto;html=1;fontSize=12;startSize=8;endSize=8;" edge="1" parent="1" source="Rdy80Uj1urpBOmqLmSxv-1" target="Rdy80Uj1urpBOmqLmSxv-173">
          <mxGeometry relative="1" as="geometry" />
        </mxCell>
        <mxCell id="Rdy80Uj1urpBOmqLmSxv-189" value="" style="edgeStyle=none;curved=1;rounded=0;orthogonalLoop=1;jettySize=auto;html=1;fontSize=12;startSize=8;endSize=8;" edge="1" parent="1" source="Rdy80Uj1urpBOmqLmSxv-1" target="Rdy80Uj1urpBOmqLmSxv-141">
          <mxGeometry relative="1" as="geometry" />
        </mxCell>
        <mxCell id="Rdy80Uj1urpBOmqLmSxv-1" value="&lt;div&gt;users&lt;/div&gt;" style="whiteSpace=wrap;html=1;aspect=fixed;" vertex="1" parent="1">
          <mxGeometry x="-22" y="-2021" width="80" height="80" as="geometry" />
        </mxCell>
        <mxCell id="Rdy80Uj1urpBOmqLmSxv-2" value="friendships" style="shape=ext;margin=3;double=1;whiteSpace=wrap;html=1;align=center;" vertex="1" parent="1">
          <mxGeometry x="284" y="-2001" width="100" height="40" as="geometry" />
        </mxCell>
        <mxCell id="Rdy80Uj1urpBOmqLmSxv-7" value="&lt;div&gt;events&lt;/div&gt;" style="whiteSpace=wrap;html=1;aspect=fixed;" vertex="1" parent="1">
          <mxGeometry x="-427" y="-2237" width="80" height="80" as="geometry" />
        </mxCell>
        <mxCell id="Rdy80Uj1urpBOmqLmSxv-8" value="userID" style="ellipse;whiteSpace=wrap;html=1;align=center;fontStyle=4;" vertex="1" parent="1">
          <mxGeometry x="-150" y="-1880" width="100" height="40" as="geometry" />
        </mxCell>
        <mxCell id="Rdy80Uj1urpBOmqLmSxv-9" value="" style="endArrow=none;html=1;rounded=0;fontSize=12;startSize=8;endSize=8;curved=1;exitX=0.5;exitY=1;exitDx=0;exitDy=0;entryX=0.5;entryY=0;entryDx=0;entryDy=0;" edge="1" parent="1" source="Rdy80Uj1urpBOmqLmSxv-1" target="Rdy80Uj1urpBOmqLmSxv-8">
          <mxGeometry width="50" height="50" relative="1" as="geometry">
            <mxPoint x="32" y="-1944" as="sourcePoint" />
            <mxPoint x="82" y="-1994" as="targetPoint" />
          </mxGeometry>
        </mxCell>
        <mxCell id="Rdy80Uj1urpBOmqLmSxv-10" value="&lt;div&gt;name&lt;/div&gt;" style="ellipse;whiteSpace=wrap;html=1;align=center;" vertex="1" parent="1">
          <mxGeometry x="-32" y="-1851" width="100" height="40" as="geometry" />
        </mxCell>
        <mxCell id="Rdy80Uj1urpBOmqLmSxv-11" value="" style="endArrow=none;html=1;rounded=0;fontSize=12;startSize=8;endSize=8;curved=1;exitX=0.5;exitY=1;exitDx=0;exitDy=0;entryX=0.5;entryY=0;entryDx=0;entryDy=0;" edge="1" parent="1" source="Rdy80Uj1urpBOmqLmSxv-1" target="Rdy80Uj1urpBOmqLmSxv-10">
          <mxGeometry width="50" height="50" relative="1" as="geometry">
            <mxPoint x="32" y="-1944" as="sourcePoint" />
            <mxPoint x="82" y="-1994" as="targetPoint" />
          </mxGeometry>
        </mxCell>
        <mxCell id="Rdy80Uj1urpBOmqLmSxv-14" value="title" style="ellipse;whiteSpace=wrap;html=1;align=center;" vertex="1" parent="1">
          <mxGeometry x="-559" y="-2257" width="100" height="40" as="geometry" />
        </mxCell>
        <mxCell id="Rdy80Uj1urpBOmqLmSxv-15" value="endDate" style="ellipse;whiteSpace=wrap;html=1;align=center;" vertex="1" parent="1">
          <mxGeometry x="-559" y="-2191" width="100" height="40" as="geometry" />
        </mxCell>
        <mxCell id="Rdy80Uj1urpBOmqLmSxv-16" value="place" style="ellipse;whiteSpace=wrap;html=1;align=center;" vertex="1" parent="1">
          <mxGeometry x="-318" y="-2257" width="100" height="40" as="geometry" />
        </mxCell>
        <mxCell id="Rdy80Uj1urpBOmqLmSxv-17" value="duration" style="ellipse;whiteSpace=wrap;html=1;align=center;" vertex="1" parent="1">
          <mxGeometry x="-318" y="-2197" width="100" height="40" as="geometry" />
        </mxCell>
        <mxCell id="Rdy80Uj1urpBOmqLmSxv-23" value="eventID" style="ellipse;whiteSpace=wrap;html=1;align=center;fontStyle=4;" vertex="1" parent="1">
          <mxGeometry x="-488" y="-2317" width="100" height="40" as="geometry" />
        </mxCell>
        <mxCell id="Rdy80Uj1urpBOmqLmSxv-28" value="&lt;div&gt;attendees&lt;/div&gt;" style="shape=ext;margin=3;double=1;whiteSpace=wrap;html=1;align=center;" vertex="1" parent="1">
          <mxGeometry x="-435" y="-2001" width="96" height="40" as="geometry" />
        </mxCell>
        <mxCell id="Rdy80Uj1urpBOmqLmSxv-29" value="startDate" style="ellipse;whiteSpace=wrap;html=1;align=center;" vertex="1" parent="1">
          <mxGeometry x="-382" y="-2317" width="100" height="40" as="geometry" />
        </mxCell>
        <mxCell id="Rdy80Uj1urpBOmqLmSxv-30" style="edgeStyle=none;curved=1;rounded=0;orthogonalLoop=1;jettySize=auto;html=1;exitX=0.5;exitY=0;exitDx=0;exitDy=0;fontSize=12;startSize=8;endSize=8;" edge="1" parent="1" source="Rdy80Uj1urpBOmqLmSxv-29" target="Rdy80Uj1urpBOmqLmSxv-29">
          <mxGeometry relative="1" as="geometry" />
        </mxCell>
        <mxCell id="Rdy80Uj1urpBOmqLmSxv-51" value="&lt;div&gt;Posts&lt;/div&gt;" style="whiteSpace=wrap;html=1;align=center;" vertex="1" parent="1">
          <mxGeometry x="275.5" y="-2269" width="100" height="40" as="geometry" />
        </mxCell>
        <mxCell id="Rdy80Uj1urpBOmqLmSxv-52" value="Video posts" style="shape=ext;margin=3;double=1;whiteSpace=wrap;html=1;align=center;" vertex="1" parent="1">
          <mxGeometry x="153.5" y="-2482" width="100" height="40" as="geometry" />
        </mxCell>
        <mxCell id="Rdy80Uj1urpBOmqLmSxv-53" value="Text posts" style="shape=ext;margin=3;double=1;whiteSpace=wrap;html=1;align=center;" vertex="1" parent="1">
          <mxGeometry x="275.5" y="-2482" width="100" height="40" as="geometry" />
        </mxCell>
        <mxCell id="Rdy80Uj1urpBOmqLmSxv-54" value="Image posts" style="shape=ext;margin=3;double=1;whiteSpace=wrap;html=1;align=center;" vertex="1" parent="1">
          <mxGeometry x="397.5" y="-2482" width="100" height="40" as="geometry" />
        </mxCell>
        <mxCell id="Rdy80Uj1urpBOmqLmSxv-56" value="&lt;div&gt;is&lt;/div&gt;" style="shape=rhombus;double=1;perimeter=rhombusPerimeter;whiteSpace=wrap;html=1;align=center;" vertex="1" parent="1">
          <mxGeometry x="277" y="-2368" width="97" height="57" as="geometry" />
        </mxCell>
        <mxCell id="Rdy80Uj1urpBOmqLmSxv-59" value="&lt;div&gt;is&lt;/div&gt;" style="shape=rhombus;double=1;perimeter=rhombusPerimeter;whiteSpace=wrap;html=1;align=center;" vertex="1" parent="1">
          <mxGeometry x="155" y="-2368" width="97" height="57" as="geometry" />
        </mxCell>
        <mxCell id="Rdy80Uj1urpBOmqLmSxv-60" value="&lt;div&gt;is&lt;/div&gt;" style="shape=rhombus;double=1;perimeter=rhombusPerimeter;whiteSpace=wrap;html=1;align=center;" vertex="1" parent="1">
          <mxGeometry x="399" y="-2368" width="97" height="57" as="geometry" />
        </mxCell>
        <mxCell id="Rdy80Uj1urpBOmqLmSxv-68" value="" style="endArrow=none;html=1;rounded=0;fontSize=12;startSize=8;endSize=8;curved=1;entryX=1;entryY=1;entryDx=0;entryDy=0;exitX=0.25;exitY=0;exitDx=0;exitDy=0;" edge="1" parent="1" source="Rdy80Uj1urpBOmqLmSxv-51" target="Rdy80Uj1urpBOmqLmSxv-59">
          <mxGeometry width="50" height="50" relative="1" as="geometry">
            <mxPoint x="230" y="-2257" as="sourcePoint" />
            <mxPoint x="127" y="-2247" as="targetPoint" />
          </mxGeometry>
        </mxCell>
        <mxCell id="Rdy80Uj1urpBOmqLmSxv-69" value="" style="endArrow=none;html=1;rounded=0;fontSize=12;startSize=8;endSize=8;curved=1;entryX=0.5;entryY=1;entryDx=0;entryDy=0;exitX=0.785;exitY=0;exitDx=0;exitDy=0;exitPerimeter=0;" edge="1" parent="1" source="Rdy80Uj1urpBOmqLmSxv-51" target="Rdy80Uj1urpBOmqLmSxv-60">
          <mxGeometry width="50" height="50" relative="1" as="geometry">
            <mxPoint x="311" y="-2259" as="sourcePoint" />
            <mxPoint x="238" y="-2315" as="targetPoint" />
          </mxGeometry>
        </mxCell>
        <mxCell id="Rdy80Uj1urpBOmqLmSxv-70" value="" style="endArrow=none;html=1;rounded=0;fontSize=12;startSize=8;endSize=8;curved=1;entryX=0.5;entryY=1;entryDx=0;entryDy=0;exitX=0.5;exitY=0;exitDx=0;exitDy=0;" edge="1" parent="1" source="Rdy80Uj1urpBOmqLmSxv-51" target="Rdy80Uj1urpBOmqLmSxv-56">
          <mxGeometry width="50" height="50" relative="1" as="geometry">
            <mxPoint x="357" y="-2279" as="sourcePoint" />
            <mxPoint x="248" y="-2305" as="targetPoint" />
          </mxGeometry>
        </mxCell>
        <mxCell id="Rdy80Uj1urpBOmqLmSxv-71" value="" style="endArrow=none;html=1;rounded=0;fontSize=12;startSize=8;endSize=8;curved=1;exitX=0.5;exitY=0;exitDx=0;exitDy=0;entryX=0.5;entryY=1;entryDx=0;entryDy=0;" edge="1" parent="1" source="Rdy80Uj1urpBOmqLmSxv-59" target="Rdy80Uj1urpBOmqLmSxv-52">
          <mxGeometry width="50" height="50" relative="1" as="geometry">
            <mxPoint x="165" y="-2380" as="sourcePoint" />
            <mxPoint x="215" y="-2430" as="targetPoint" />
          </mxGeometry>
        </mxCell>
        <mxCell id="Rdy80Uj1urpBOmqLmSxv-72" value="" style="endArrow=none;html=1;rounded=0;fontSize=12;startSize=8;endSize=8;curved=1;exitX=0.5;exitY=0;exitDx=0;exitDy=0;entryX=0.5;entryY=1;entryDx=0;entryDy=0;" edge="1" parent="1" source="Rdy80Uj1urpBOmqLmSxv-56" target="Rdy80Uj1urpBOmqLmSxv-53">
          <mxGeometry width="50" height="50" relative="1" as="geometry">
            <mxPoint x="328" y="-2371" as="sourcePoint" />
            <mxPoint x="326" y="-2445" as="targetPoint" />
          </mxGeometry>
        </mxCell>
        <mxCell id="Rdy80Uj1urpBOmqLmSxv-74" value="" style="endArrow=none;html=1;rounded=0;fontSize=12;startSize=8;endSize=8;curved=1;exitX=0.5;exitY=0;exitDx=0;exitDy=0;entryX=0.5;entryY=1;entryDx=0;entryDy=0;" edge="1" parent="1" source="Rdy80Uj1urpBOmqLmSxv-60" target="Rdy80Uj1urpBOmqLmSxv-54">
          <mxGeometry width="50" height="50" relative="1" as="geometry">
            <mxPoint x="336" y="-2358" as="sourcePoint" />
            <mxPoint x="337" y="-2432" as="targetPoint" />
          </mxGeometry>
        </mxCell>
        <mxCell id="Rdy80Uj1urpBOmqLmSxv-75" value="imgURL" style="ellipse;whiteSpace=wrap;html=1;align=center;" vertex="1" parent="1">
          <mxGeometry x="501" y="-2576" width="100" height="40" as="geometry" />
        </mxCell>
        <mxCell id="Rdy80Uj1urpBOmqLmSxv-76" value="filter" style="ellipse;whiteSpace=wrap;html=1;align=center;" vertex="1" parent="1">
          <mxGeometry x="399" y="-2614" width="100" height="40" as="geometry" />
        </mxCell>
        <mxCell id="Rdy80Uj1urpBOmqLmSxv-77" value="textContent" style="ellipse;whiteSpace=wrap;html=1;align=center;" vertex="1" parent="1">
          <mxGeometry x="274" y="-2576" width="100" height="40" as="geometry" />
        </mxCell>
        <mxCell id="Rdy80Uj1urpBOmqLmSxv-78" value="vidURL" style="ellipse;whiteSpace=wrap;html=1;align=center;" vertex="1" parent="1">
          <mxGeometry x="63" y="-2576" width="100" height="40" as="geometry" />
        </mxCell>
        <mxCell id="Rdy80Uj1urpBOmqLmSxv-79" value="codec" style="ellipse;whiteSpace=wrap;html=1;align=center;" vertex="1" parent="1">
          <mxGeometry x="155" y="-2616" width="100" height="40" as="geometry" />
        </mxCell>
        <mxCell id="Rdy80Uj1urpBOmqLmSxv-81" value="" style="endArrow=none;html=1;rounded=0;fontSize=12;startSize=8;endSize=8;curved=1;entryX=0.5;entryY=1;entryDx=0;entryDy=0;exitX=0.25;exitY=0;exitDx=0;exitDy=0;" edge="1" parent="1" source="Rdy80Uj1urpBOmqLmSxv-52" target="Rdy80Uj1urpBOmqLmSxv-78">
          <mxGeometry width="50" height="50" relative="1" as="geometry">
            <mxPoint x="325" y="-2281" as="sourcePoint" />
            <mxPoint x="375" y="-2331" as="targetPoint" />
          </mxGeometry>
        </mxCell>
        <mxCell id="Rdy80Uj1urpBOmqLmSxv-82" value="" style="endArrow=none;html=1;rounded=0;fontSize=12;startSize=8;endSize=8;curved=1;entryX=0.5;entryY=1;entryDx=0;entryDy=0;exitX=0.5;exitY=0;exitDx=0;exitDy=0;" edge="1" parent="1" source="Rdy80Uj1urpBOmqLmSxv-52" target="Rdy80Uj1urpBOmqLmSxv-79">
          <mxGeometry width="50" height="50" relative="1" as="geometry">
            <mxPoint x="325" y="-2281" as="sourcePoint" />
            <mxPoint x="375" y="-2331" as="targetPoint" />
          </mxGeometry>
        </mxCell>
        <mxCell id="Rdy80Uj1urpBOmqLmSxv-83" value="" style="endArrow=none;html=1;rounded=0;fontSize=12;startSize=8;endSize=8;curved=1;entryX=0.5;entryY=1;entryDx=0;entryDy=0;exitX=0.5;exitY=0;exitDx=0;exitDy=0;" edge="1" parent="1" source="Rdy80Uj1urpBOmqLmSxv-53" target="Rdy80Uj1urpBOmqLmSxv-77">
          <mxGeometry width="50" height="50" relative="1" as="geometry">
            <mxPoint x="325" y="-2281" as="sourcePoint" />
            <mxPoint x="375" y="-2331" as="targetPoint" />
          </mxGeometry>
        </mxCell>
        <mxCell id="Rdy80Uj1urpBOmqLmSxv-84" value="" style="endArrow=none;html=1;rounded=0;fontSize=12;startSize=8;endSize=8;curved=1;entryX=0.5;entryY=1;entryDx=0;entryDy=0;exitX=0.5;exitY=0;exitDx=0;exitDy=0;" edge="1" parent="1" source="Rdy80Uj1urpBOmqLmSxv-54" target="Rdy80Uj1urpBOmqLmSxv-76">
          <mxGeometry width="50" height="50" relative="1" as="geometry">
            <mxPoint x="336" y="-2472" as="sourcePoint" />
            <mxPoint x="334" y="-2526" as="targetPoint" />
          </mxGeometry>
        </mxCell>
        <mxCell id="Rdy80Uj1urpBOmqLmSxv-85" value="" style="endArrow=none;html=1;rounded=0;fontSize=12;startSize=8;endSize=8;curved=1;entryX=0.5;entryY=1;entryDx=0;entryDy=0;exitX=0.75;exitY=0;exitDx=0;exitDy=0;" edge="1" parent="1" source="Rdy80Uj1urpBOmqLmSxv-54" target="Rdy80Uj1urpBOmqLmSxv-75">
          <mxGeometry width="50" height="50" relative="1" as="geometry">
            <mxPoint x="464" y="-2487" as="sourcePoint" />
            <mxPoint x="344" y="-2516" as="targetPoint" />
          </mxGeometry>
        </mxCell>
        <mxCell id="Rdy80Uj1urpBOmqLmSxv-86" value="postID" style="ellipse;whiteSpace=wrap;html=1;align=center;fontStyle=4;" vertex="1" parent="1">
          <mxGeometry x="462" y="-2269" width="100" height="40" as="geometry" />
        </mxCell>
        <mxCell id="Rdy80Uj1urpBOmqLmSxv-87" value="" style="endArrow=none;html=1;rounded=0;fontSize=12;startSize=8;endSize=8;curved=1;entryX=0;entryY=0.5;entryDx=0;entryDy=0;exitX=1;exitY=0.5;exitDx=0;exitDy=0;" edge="1" parent="1" source="Rdy80Uj1urpBOmqLmSxv-51" target="Rdy80Uj1urpBOmqLmSxv-86">
          <mxGeometry width="50" height="50" relative="1" as="geometry">
            <mxPoint x="438" y="-2216" as="sourcePoint" />
            <mxPoint x="324" y="-2291" as="targetPoint" />
          </mxGeometry>
        </mxCell>
        <mxCell id="Rdy80Uj1urpBOmqLmSxv-88" value="have" style="shape=rhombus;perimeter=rhombusPerimeter;whiteSpace=wrap;html=1;align=center;rotation=0;" vertex="1" parent="1">
          <mxGeometry x="190" y="-2145" width="120" height="60" as="geometry" />
        </mxCell>
        <mxCell id="Rdy80Uj1urpBOmqLmSxv-89" value="" style="endArrow=none;html=1;rounded=0;fontSize=12;startSize=8;endSize=8;curved=1;exitX=1;exitY=0;exitDx=0;exitDy=0;entryX=0;entryY=0.5;entryDx=0;entryDy=0;" edge="1" parent="1" source="Rdy80Uj1urpBOmqLmSxv-1" target="Rdy80Uj1urpBOmqLmSxv-88">
          <mxGeometry width="50" height="50" relative="1" as="geometry">
            <mxPoint x="109" y="-2119" as="sourcePoint" />
            <mxPoint x="159" y="-2169" as="targetPoint" />
          </mxGeometry>
        </mxCell>
        <mxCell id="Rdy80Uj1urpBOmqLmSxv-90" value="" style="endArrow=none;html=1;rounded=0;fontSize=12;startSize=8;endSize=8;curved=1;exitX=1;exitY=0.5;exitDx=0;exitDy=0;entryX=0.5;entryY=1;entryDx=0;entryDy=0;" edge="1" parent="1" source="Rdy80Uj1urpBOmqLmSxv-88" target="Rdy80Uj1urpBOmqLmSxv-51">
          <mxGeometry width="50" height="50" relative="1" as="geometry">
            <mxPoint x="68" y="-2011" as="sourcePoint" />
            <mxPoint x="145" y="-2128" as="targetPoint" />
          </mxGeometry>
        </mxCell>
        <mxCell id="Rdy80Uj1urpBOmqLmSxv-96" value="title" style="ellipse;whiteSpace=wrap;html=1;align=center;" vertex="1" parent="1">
          <mxGeometry x="464" y="-2321" width="100" height="40" as="geometry" />
        </mxCell>
        <mxCell id="Rdy80Uj1urpBOmqLmSxv-97" value="date" style="ellipse;whiteSpace=wrap;html=1;align=center;" vertex="1" parent="1">
          <mxGeometry x="458" y="-2168" width="100" height="40" as="geometry" />
        </mxCell>
        <mxCell id="Rdy80Uj1urpBOmqLmSxv-98" value="place" style="ellipse;whiteSpace=wrap;html=1;align=center;" vertex="1" parent="1">
          <mxGeometry x="462" y="-2217" width="100" height="40" as="geometry" />
        </mxCell>
        <mxCell id="Rdy80Uj1urpBOmqLmSxv-99" value="tags" style="ellipse;whiteSpace=wrap;html=1;align=center;" vertex="1" parent="1">
          <mxGeometry x="68" y="-2191" width="100" height="40" as="geometry" />
        </mxCell>
        <mxCell id="Rdy80Uj1urpBOmqLmSxv-100" value="" style="endArrow=none;html=1;rounded=0;fontSize=12;startSize=8;endSize=8;curved=1;entryX=0;entryY=0.5;entryDx=0;entryDy=0;exitX=1;exitY=0;exitDx=0;exitDy=0;" edge="1" parent="1" source="Rdy80Uj1urpBOmqLmSxv-51" target="Rdy80Uj1urpBOmqLmSxv-96">
          <mxGeometry width="50" height="50" relative="1" as="geometry">
            <mxPoint x="301" y="-2122" as="sourcePoint" />
            <mxPoint x="351" y="-2172" as="targetPoint" />
          </mxGeometry>
        </mxCell>
        <mxCell id="Rdy80Uj1urpBOmqLmSxv-104" value="" style="endArrow=none;html=1;rounded=0;fontSize=12;startSize=8;endSize=8;curved=1;entryX=1;entryY=1;entryDx=0;entryDy=0;exitX=0;exitY=0.5;exitDx=0;exitDy=0;" edge="1" parent="1" source="Rdy80Uj1urpBOmqLmSxv-98" target="Rdy80Uj1urpBOmqLmSxv-51">
          <mxGeometry width="50" height="50" relative="1" as="geometry">
            <mxPoint x="301" y="-2122" as="sourcePoint" />
            <mxPoint x="351" y="-2172" as="targetPoint" />
          </mxGeometry>
        </mxCell>
        <mxCell id="Rdy80Uj1urpBOmqLmSxv-107" value="" style="endArrow=none;html=1;rounded=0;fontSize=12;startSize=8;endSize=8;curved=1;entryX=1;entryY=0.5;entryDx=0;entryDy=0;exitX=0;exitY=0.75;exitDx=0;exitDy=0;" edge="1" parent="1" source="Rdy80Uj1urpBOmqLmSxv-51" target="Rdy80Uj1urpBOmqLmSxv-99">
          <mxGeometry width="50" height="50" relative="1" as="geometry">
            <mxPoint x="286" y="-2249" as="sourcePoint" />
            <mxPoint x="230" y="-2265" as="targetPoint" />
          </mxGeometry>
        </mxCell>
        <mxCell id="Rdy80Uj1urpBOmqLmSxv-109" value="&lt;div&gt;timestamp&lt;/div&gt;" style="ellipse;whiteSpace=wrap;html=1;align=center;" vertex="1" parent="1">
          <mxGeometry x="-176" y="-2267" width="100" height="40" as="geometry" />
        </mxCell>
        <mxCell id="Rdy80Uj1urpBOmqLmSxv-113" value="" style="endArrow=none;html=1;rounded=0;fontSize=12;startSize=8;endSize=8;curved=1;entryX=1;entryY=0.5;entryDx=0;entryDy=0;exitX=0;exitY=0.5;exitDx=0;exitDy=0;" edge="1" parent="1" source="Rdy80Uj1urpBOmqLmSxv-115" target="Rdy80Uj1urpBOmqLmSxv-109">
          <mxGeometry width="50" height="50" relative="1" as="geometry">
            <mxPoint x="-32" y="-2209" as="sourcePoint" />
            <mxPoint x="14" y="-2183" as="targetPoint" />
          </mxGeometry>
        </mxCell>
        <mxCell id="Rdy80Uj1urpBOmqLmSxv-115" value="like" style="shape=rhombus;double=1;perimeter=rhombusPerimeter;whiteSpace=wrap;html=1;align=center;" vertex="1" parent="1">
          <mxGeometry x="-42" y="-2277" width="120" height="60" as="geometry" />
        </mxCell>
        <mxCell id="Rdy80Uj1urpBOmqLmSxv-117" value="" style="endArrow=none;html=1;rounded=0;fontSize=12;startSize=8;endSize=8;curved=1;entryX=1;entryY=0.5;entryDx=0;entryDy=0;exitX=0;exitY=0.75;exitDx=0;exitDy=0;" edge="1" parent="1" source="Rdy80Uj1urpBOmqLmSxv-7" target="Rdy80Uj1urpBOmqLmSxv-15">
          <mxGeometry width="50" height="50" relative="1" as="geometry">
            <mxPoint x="-354" y="-2140" as="sourcePoint" />
            <mxPoint x="-304" y="-2190" as="targetPoint" />
          </mxGeometry>
        </mxCell>
        <mxCell id="Rdy80Uj1urpBOmqLmSxv-118" value="" style="endArrow=none;html=1;rounded=0;fontSize=12;startSize=8;endSize=8;curved=1;entryX=1;entryY=0.5;entryDx=0;entryDy=0;exitX=0;exitY=0.25;exitDx=0;exitDy=0;" edge="1" parent="1" source="Rdy80Uj1urpBOmqLmSxv-7" target="Rdy80Uj1urpBOmqLmSxv-14">
          <mxGeometry width="50" height="50" relative="1" as="geometry">
            <mxPoint x="-354" y="-2140" as="sourcePoint" />
            <mxPoint x="-304" y="-2190" as="targetPoint" />
          </mxGeometry>
        </mxCell>
        <mxCell id="Rdy80Uj1urpBOmqLmSxv-119" value="" style="endArrow=none;html=1;rounded=0;fontSize=12;startSize=8;endSize=8;curved=1;exitX=0.25;exitY=0;exitDx=0;exitDy=0;" edge="1" parent="1" source="Rdy80Uj1urpBOmqLmSxv-7" target="Rdy80Uj1urpBOmqLmSxv-23">
          <mxGeometry width="50" height="50" relative="1" as="geometry">
            <mxPoint x="-417" y="-2207" as="sourcePoint" />
            <mxPoint x="-449" y="-2227" as="targetPoint" />
          </mxGeometry>
        </mxCell>
        <mxCell id="Rdy80Uj1urpBOmqLmSxv-120" value="" style="endArrow=none;html=1;rounded=0;fontSize=12;startSize=8;endSize=8;curved=1;exitX=0.75;exitY=0;exitDx=0;exitDy=0;" edge="1" parent="1" source="Rdy80Uj1urpBOmqLmSxv-7">
          <mxGeometry width="50" height="50" relative="1" as="geometry">
            <mxPoint x="-397" y="-2227" as="sourcePoint" />
            <mxPoint x="-332" y="-2277" as="targetPoint" />
          </mxGeometry>
        </mxCell>
        <mxCell id="Rdy80Uj1urpBOmqLmSxv-121" value="" style="endArrow=none;html=1;rounded=0;fontSize=12;startSize=8;endSize=8;curved=1;exitX=1;exitY=0.25;exitDx=0;exitDy=0;entryX=0;entryY=0.5;entryDx=0;entryDy=0;" edge="1" parent="1" source="Rdy80Uj1urpBOmqLmSxv-7" target="Rdy80Uj1urpBOmqLmSxv-16">
          <mxGeometry width="50" height="50" relative="1" as="geometry">
            <mxPoint x="-364" y="-2223" as="sourcePoint" />
            <mxPoint x="-322" y="-2267" as="targetPoint" />
          </mxGeometry>
        </mxCell>
        <mxCell id="Rdy80Uj1urpBOmqLmSxv-122" value="" style="endArrow=none;html=1;rounded=0;fontSize=12;startSize=8;endSize=8;curved=1;exitX=1;exitY=0.75;exitDx=0;exitDy=0;entryX=0;entryY=0.5;entryDx=0;entryDy=0;" edge="1" parent="1" source="Rdy80Uj1urpBOmqLmSxv-7" target="Rdy80Uj1urpBOmqLmSxv-17">
          <mxGeometry width="50" height="50" relative="1" as="geometry">
            <mxPoint x="-354" y="-2213" as="sourcePoint" />
            <mxPoint x="-312" y="-2257" as="targetPoint" />
          </mxGeometry>
        </mxCell>
        <mxCell id="Rdy80Uj1urpBOmqLmSxv-123" value="" style="endArrow=none;html=1;rounded=0;fontSize=12;startSize=8;endSize=8;curved=1;entryX=0.5;entryY=1;entryDx=0;entryDy=0;exitX=0.5;exitY=0;exitDx=0;exitDy=0;" edge="1" parent="1" source="Rdy80Uj1urpBOmqLmSxv-147" target="Rdy80Uj1urpBOmqLmSxv-7">
          <mxGeometry width="50" height="50" relative="1" as="geometry">
            <mxPoint x="-387" y="-2108" as="sourcePoint" />
            <mxPoint x="-188" y="-2060" as="targetPoint" />
          </mxGeometry>
        </mxCell>
        <mxCell id="Rdy80Uj1urpBOmqLmSxv-124" value="" style="endArrow=none;html=1;rounded=0;fontSize=12;startSize=8;endSize=8;curved=1;entryX=0.5;entryY=1;entryDx=0;entryDy=0;exitX=0.5;exitY=0;exitDx=0;exitDy=0;" edge="1" parent="1" source="Rdy80Uj1urpBOmqLmSxv-28" target="Rdy80Uj1urpBOmqLmSxv-147">
          <mxGeometry width="50" height="50" relative="1" as="geometry">
            <mxPoint x="-377" y="-2098" as="sourcePoint" />
            <mxPoint x="-387" y="-2050" as="targetPoint" />
          </mxGeometry>
        </mxCell>
        <mxCell id="Rdy80Uj1urpBOmqLmSxv-127" value="Date of Payment" style="ellipse;whiteSpace=wrap;html=1;align=center;" vertex="1" parent="1">
          <mxGeometry x="421" y="-1863" width="100" height="40" as="geometry" />
        </mxCell>
        <mxCell id="Rdy80Uj1urpBOmqLmSxv-128" value="Payment method" style="ellipse;whiteSpace=wrap;html=1;align=center;" vertex="1" parent="1">
          <mxGeometry x="418" y="-1963" width="100" height="40" as="geometry" />
        </mxCell>
        <mxCell id="Rdy80Uj1urpBOmqLmSxv-129" value="Expiration Date" style="ellipse;whiteSpace=wrap;html=1;align=center;" vertex="1" parent="1">
          <mxGeometry x="415" y="-1913" width="100" height="40" as="geometry" />
        </mxCell>
        <mxCell id="Rdy80Uj1urpBOmqLmSxv-130" value="" style="endArrow=none;html=1;rounded=0;fontSize=12;startSize=8;endSize=8;curved=1;entryX=0;entryY=0.5;entryDx=0;entryDy=0;exitX=1;exitY=0.25;exitDx=0;exitDy=0;" edge="1" parent="1" source="Rdy80Uj1urpBOmqLmSxv-194" target="Rdy80Uj1urpBOmqLmSxv-128">
          <mxGeometry width="50" height="50" relative="1" as="geometry">
            <mxPoint x="384" y="-1903.0000000000002" as="sourcePoint" />
            <mxPoint x="288" y="-2052" as="targetPoint" />
          </mxGeometry>
        </mxCell>
        <mxCell id="Rdy80Uj1urpBOmqLmSxv-131" value="" style="endArrow=none;html=1;rounded=0;fontSize=12;startSize=8;endSize=8;curved=1;entryX=0;entryY=0.5;entryDx=0;entryDy=0;exitX=1;exitY=0.5;exitDx=0;exitDy=0;" edge="1" parent="1" source="Rdy80Uj1urpBOmqLmSxv-194" target="Rdy80Uj1urpBOmqLmSxv-129">
          <mxGeometry width="50" height="50" relative="1" as="geometry">
            <mxPoint x="384" y="-1893.0000000000002" as="sourcePoint" />
            <mxPoint x="422" y="-1933" as="targetPoint" />
          </mxGeometry>
        </mxCell>
        <mxCell id="Rdy80Uj1urpBOmqLmSxv-132" value="" style="endArrow=none;html=1;rounded=0;fontSize=12;startSize=8;endSize=8;curved=1;entryX=0;entryY=0.5;entryDx=0;entryDy=0;exitX=1;exitY=0.75;exitDx=0;exitDy=0;" edge="1" parent="1" source="Rdy80Uj1urpBOmqLmSxv-194" target="Rdy80Uj1urpBOmqLmSxv-127">
          <mxGeometry width="50" height="50" relative="1" as="geometry">
            <mxPoint x="384" y="-1883.0000000000002" as="sourcePoint" />
            <mxPoint x="425" y="-1883" as="targetPoint" />
          </mxGeometry>
        </mxCell>
        <mxCell id="Rdy80Uj1urpBOmqLmSxv-134" value="" style="endArrow=none;html=1;rounded=0;fontSize=12;startSize=8;endSize=8;curved=1;entryX=0;entryY=0.5;entryDx=0;entryDy=0;exitX=1;exitY=0.5;exitDx=0;exitDy=0;" edge="1" parent="1" source="Rdy80Uj1urpBOmqLmSxv-193" target="Rdy80Uj1urpBOmqLmSxv-194">
          <mxGeometry width="50" height="50" relative="1" as="geometry">
            <mxPoint x="236" y="-1893.0000000000002" as="sourcePoint" />
            <mxPoint x="284" y="-1893.0000000000002" as="targetPoint" />
          </mxGeometry>
        </mxCell>
        <mxCell id="Rdy80Uj1urpBOmqLmSxv-137" value="create" style="shape=rhombus;perimeter=rhombusPerimeter;whiteSpace=wrap;html=1;align=center;rotation=0;" vertex="1" parent="1">
          <mxGeometry x="-270" y="-2128" width="120" height="60" as="geometry" />
        </mxCell>
        <mxCell id="Rdy80Uj1urpBOmqLmSxv-138" value="" style="endArrow=none;html=1;rounded=0;fontSize=12;startSize=8;endSize=8;curved=1;entryX=1;entryY=0.5;entryDx=0;entryDy=0;exitX=0.25;exitY=0;exitDx=0;exitDy=0;" edge="1" parent="1" source="Rdy80Uj1urpBOmqLmSxv-1" target="Rdy80Uj1urpBOmqLmSxv-137">
          <mxGeometry width="50" height="50" relative="1" as="geometry">
            <mxPoint x="-149" y="-2064" as="sourcePoint" />
            <mxPoint x="-99" y="-2114" as="targetPoint" />
          </mxGeometry>
        </mxCell>
        <mxCell id="Rdy80Uj1urpBOmqLmSxv-139" value="" style="endArrow=none;html=1;rounded=0;fontSize=12;startSize=8;endSize=8;curved=1;entryX=1;entryY=1;entryDx=0;entryDy=0;exitX=0;exitY=0.5;exitDx=0;exitDy=0;" edge="1" parent="1" source="Rdy80Uj1urpBOmqLmSxv-137" target="Rdy80Uj1urpBOmqLmSxv-7">
          <mxGeometry width="50" height="50" relative="1" as="geometry">
            <mxPoint x="-149" y="-2064" as="sourcePoint" />
            <mxPoint x="-99" y="-2114" as="targetPoint" />
          </mxGeometry>
        </mxCell>
        <mxCell id="Rdy80Uj1urpBOmqLmSxv-141" value="are" style="shape=rhombus;double=1;perimeter=rhombusPerimeter;whiteSpace=wrap;html=1;align=center;" vertex="1" parent="1">
          <mxGeometry x="-241" y="-2011" width="120" height="60" as="geometry" />
        </mxCell>
        <mxCell id="Rdy80Uj1urpBOmqLmSxv-144" value="" style="endArrow=none;html=1;rounded=0;fontSize=12;startSize=8;endSize=8;curved=1;entryX=1;entryY=0.5;entryDx=0;entryDy=0;exitX=0;exitY=0.5;exitDx=0;exitDy=0;" edge="1" parent="1" source="Rdy80Uj1urpBOmqLmSxv-141" target="Rdy80Uj1urpBOmqLmSxv-28">
          <mxGeometry width="50" height="50" relative="1" as="geometry">
            <mxPoint x="-235" y="-1973" as="sourcePoint" />
            <mxPoint x="-185" y="-2023" as="targetPoint" />
          </mxGeometry>
        </mxCell>
        <mxCell id="Rdy80Uj1urpBOmqLmSxv-146" value="" style="endArrow=none;html=1;rounded=0;fontSize=12;startSize=8;endSize=8;curved=1;entryX=1;entryY=0.5;entryDx=0;entryDy=0;exitX=0;exitY=0.5;exitDx=0;exitDy=0;" edge="1" parent="1" source="Rdy80Uj1urpBOmqLmSxv-1" target="Rdy80Uj1urpBOmqLmSxv-141">
          <mxGeometry width="50" height="50" relative="1" as="geometry">
            <mxPoint x="-231" y="-1971" as="sourcePoint" />
            <mxPoint x="-329" y="-1971" as="targetPoint" />
          </mxGeometry>
        </mxCell>
        <mxCell id="Rdy80Uj1urpBOmqLmSxv-147" value="have" style="shape=rhombus;double=1;perimeter=rhombusPerimeter;whiteSpace=wrap;html=1;align=center;" vertex="1" parent="1">
          <mxGeometry x="-447" y="-2108" width="120" height="60" as="geometry" />
        </mxCell>
        <mxCell id="Rdy80Uj1urpBOmqLmSxv-156" value="" style="endArrow=none;html=1;rounded=0;fontSize=12;startSize=8;endSize=8;curved=1;exitX=1;exitY=0.5;exitDx=0;exitDy=0;entryX=0;entryY=0.5;entryDx=0;entryDy=0;" edge="1" parent="1" source="Rdy80Uj1urpBOmqLmSxv-115" target="Rdy80Uj1urpBOmqLmSxv-51">
          <mxGeometry relative="1" as="geometry">
            <mxPoint x="83" y="-2245" as="sourcePoint" />
            <mxPoint x="243" y="-2245" as="targetPoint" />
          </mxGeometry>
        </mxCell>
        <mxCell id="Rdy80Uj1urpBOmqLmSxv-157" value="M" style="resizable=0;html=1;whiteSpace=wrap;align=right;verticalAlign=bottom;" connectable="0" vertex="1" parent="Rdy80Uj1urpBOmqLmSxv-156">
          <mxGeometry x="1" relative="1" as="geometry" />
        </mxCell>
        <mxCell id="Rdy80Uj1urpBOmqLmSxv-158" value="" style="endArrow=none;html=1;rounded=0;fontSize=12;startSize=8;endSize=8;curved=1;entryX=0.75;entryY=1;entryDx=0;entryDy=0;exitX=0;exitY=0;exitDx=0;exitDy=0;" edge="1" parent="1" source="Rdy80Uj1urpBOmqLmSxv-97" target="Rdy80Uj1urpBOmqLmSxv-51">
          <mxGeometry width="50" height="50" relative="1" as="geometry">
            <mxPoint x="472" y="-2187" as="sourcePoint" />
            <mxPoint x="386" y="-2219" as="targetPoint" />
          </mxGeometry>
        </mxCell>
        <mxCell id="Rdy80Uj1urpBOmqLmSxv-167" value="" style="endArrow=none;html=1;rounded=0;fontSize=12;startSize=8;endSize=8;curved=1;exitX=0.5;exitY=0;exitDx=0;exitDy=0;entryX=0.5;entryY=1;entryDx=0;entryDy=0;" edge="1" parent="1" source="Rdy80Uj1urpBOmqLmSxv-1" target="Rdy80Uj1urpBOmqLmSxv-115">
          <mxGeometry relative="1" as="geometry">
            <mxPoint x="48" y="-2031" as="sourcePoint" />
            <mxPoint x="208" y="-2031" as="targetPoint" />
          </mxGeometry>
        </mxCell>
        <mxCell id="Rdy80Uj1urpBOmqLmSxv-168" value="N" style="resizable=0;html=1;whiteSpace=wrap;align=left;verticalAlign=bottom;" connectable="0" vertex="1" parent="Rdy80Uj1urpBOmqLmSxv-167">
          <mxGeometry x="-1" relative="1" as="geometry" />
        </mxCell>
        <mxCell id="Rdy80Uj1urpBOmqLmSxv-169" value="" style="resizable=0;html=1;whiteSpace=wrap;align=right;verticalAlign=bottom;" connectable="0" vertex="1" parent="Rdy80Uj1urpBOmqLmSxv-167">
          <mxGeometry x="1" relative="1" as="geometry" />
        </mxCell>
        <mxCell id="Rdy80Uj1urpBOmqLmSxv-170" value="" style="endArrow=none;html=1;rounded=0;fontSize=12;startSize=8;endSize=8;curved=1;exitX=1;exitY=0.5;exitDx=0;exitDy=0;entryX=0;entryY=0.5;entryDx=0;entryDy=0;" edge="1" parent="1" source="Rdy80Uj1urpBOmqLmSxv-173" target="Rdy80Uj1urpBOmqLmSxv-2">
          <mxGeometry relative="1" as="geometry">
            <mxPoint x="98" y="-2010" as="sourcePoint" />
            <mxPoint x="258" y="-2010" as="targetPoint" />
          </mxGeometry>
        </mxCell>
        <mxCell id="Rdy80Uj1urpBOmqLmSxv-172" value="M" style="resizable=0;html=1;whiteSpace=wrap;align=right;verticalAlign=bottom;" connectable="0" vertex="1" parent="Rdy80Uj1urpBOmqLmSxv-170">
          <mxGeometry x="1" relative="1" as="geometry" />
        </mxCell>
        <mxCell id="Rdy80Uj1urpBOmqLmSxv-174" value="" style="endArrow=none;html=1;rounded=0;fontSize=12;startSize=8;endSize=8;curved=1;exitX=1;exitY=0.5;exitDx=0;exitDy=0;entryX=0;entryY=0.5;entryDx=0;entryDy=0;" edge="1" parent="1" source="Rdy80Uj1urpBOmqLmSxv-1" target="Rdy80Uj1urpBOmqLmSxv-173">
          <mxGeometry relative="1" as="geometry">
            <mxPoint x="58" y="-1981" as="sourcePoint" />
            <mxPoint x="284" y="-1981" as="targetPoint" />
          </mxGeometry>
        </mxCell>
        <mxCell id="Rdy80Uj1urpBOmqLmSxv-175" value="N" style="resizable=0;html=1;whiteSpace=wrap;align=left;verticalAlign=bottom;" connectable="0" vertex="1" parent="Rdy80Uj1urpBOmqLmSxv-174">
          <mxGeometry x="-1" relative="1" as="geometry" />
        </mxCell>
        <mxCell id="Rdy80Uj1urpBOmqLmSxv-173" value="have" style="shape=rhombus;double=1;perimeter=rhombusPerimeter;whiteSpace=wrap;html=1;align=center;" vertex="1" parent="1">
          <mxGeometry x="120" y="-2011" width="120" height="60" as="geometry" />
        </mxCell>
        <mxCell id="Rdy80Uj1urpBOmqLmSxv-179" value="" style="endArrow=none;html=1;rounded=0;fontSize=12;startSize=8;endSize=8;curved=1;exitX=1;exitY=0.75;exitDx=0;exitDy=0;entryX=0;entryY=0.5;entryDx=0;entryDy=0;" edge="1" parent="1" source="Rdy80Uj1urpBOmqLmSxv-1" target="Rdy80Uj1urpBOmqLmSxv-193">
          <mxGeometry relative="1" as="geometry">
            <mxPoint x="80" y="-1943.53" as="sourcePoint" />
            <mxPoint x="116" y="-1893.0000000000002" as="targetPoint" />
          </mxGeometry>
        </mxCell>
        <mxCell id="Rdy80Uj1urpBOmqLmSxv-180" value="1" style="resizable=0;html=1;whiteSpace=wrap;align=right;verticalAlign=bottom;" connectable="0" vertex="1" parent="Rdy80Uj1urpBOmqLmSxv-179">
          <mxGeometry x="1" relative="1" as="geometry">
            <mxPoint x="-45" y="-61" as="offset" />
          </mxGeometry>
        </mxCell>
        <mxCell id="Rdy80Uj1urpBOmqLmSxv-181" value="1" style="resizable=0;html=1;whiteSpace=wrap;align=right;verticalAlign=bottom;" connectable="0" vertex="1" parent="1">
          <mxGeometry x="81.06364370214078" y="-1943.9253832457662" as="geometry">
            <mxPoint x="197" y="48" as="offset" />
          </mxGeometry>
        </mxCell>
        <mxCell id="Rdy80Uj1urpBOmqLmSxv-182" value="1" style="resizable=0;html=1;whiteSpace=wrap;align=right;verticalAlign=bottom;" connectable="0" vertex="1" parent="1">
          <mxGeometry x="-28.996356297859222" y="-1982.995383245766" as="geometry" />
        </mxCell>
        <mxCell id="Rdy80Uj1urpBOmqLmSxv-183" value="M" style="resizable=0;html=1;whiteSpace=wrap;align=right;verticalAlign=bottom;" connectable="0" vertex="1" parent="1">
          <mxGeometry x="10.003643702140778" y="-1903.995383245766" as="geometry">
            <mxPoint x="-329" y="-78" as="offset" />
          </mxGeometry>
        </mxCell>
        <mxCell id="Rdy80Uj1urpBOmqLmSxv-186" value="M" style="resizable=0;html=1;whiteSpace=wrap;align=right;verticalAlign=bottom;" connectable="0" vertex="1" parent="1">
          <mxGeometry x="-61.99635629785922" y="-1922.995383245766" as="geometry">
            <mxPoint x="-329" y="-78" as="offset" />
          </mxGeometry>
        </mxCell>
        <mxCell id="Rdy80Uj1urpBOmqLmSxv-190" value="1" style="resizable=0;html=1;whiteSpace=wrap;align=right;verticalAlign=bottom;" connectable="0" vertex="1" parent="1">
          <mxGeometry x="-391.9963562978592" y="-2137.995383245766" as="geometry" />
        </mxCell>
        <mxCell id="Rdy80Uj1urpBOmqLmSxv-191" value="M" style="resizable=0;html=1;whiteSpace=wrap;align=right;verticalAlign=bottom;" connectable="0" vertex="1" parent="1">
          <mxGeometry x="-6.996356297859222" y="-2056.995383245766" as="geometry">
            <mxPoint x="-329" y="-78" as="offset" />
          </mxGeometry>
        </mxCell>
        <mxCell id="Rdy80Uj1urpBOmqLmSxv-192" value="1" style="resizable=0;html=1;whiteSpace=wrap;align=right;verticalAlign=bottom;" connectable="0" vertex="1" parent="1">
          <mxGeometry x="-2.996356297859222" y="-2025.9953832457659" as="geometry" />
        </mxCell>
        <mxCell id="Rdy80Uj1urpBOmqLmSxv-193" value="have" style="shape=rhombus;double=1;perimeter=rhombusPerimeter;whiteSpace=wrap;html=1;align=center;" vertex="1" parent="1">
          <mxGeometry x="117" y="-1923" width="120" height="60" as="geometry" />
        </mxCell>
        <mxCell id="Rdy80Uj1urpBOmqLmSxv-194" value="subscription" style="shape=ext;margin=3;double=1;whiteSpace=wrap;html=1;align=center;" vertex="1" parent="1">
          <mxGeometry x="284" y="-1915" width="100" height="40" as="geometry" />
        </mxCell>
        <mxCell id="Rdy80Uj1urpBOmqLmSxv-195" value="1" style="resizable=0;html=1;whiteSpace=wrap;align=right;verticalAlign=bottom;" connectable="0" vertex="1" parent="1">
          <mxGeometry x="62.996721348156754" y="-2025.9934398021246" as="geometry" />
        </mxCell>
        <mxCell id="Rdy80Uj1urpBOmqLmSxv-196" value="M" style="resizable=0;html=1;whiteSpace=wrap;align=right;verticalAlign=bottom;" connectable="0" vertex="1" parent="1">
          <mxGeometry x="315.99672134815677" y="-2210.0034398021244" as="geometry" />
        </mxCell>
        <mxCell id="Rdy80Uj1urpBOmqLmSxv-197" value="1" style="resizable=0;html=1;whiteSpace=wrap;align=right;verticalAlign=bottom;" connectable="0" vertex="1" parent="1">
          <mxGeometry x="265.00459080048824" y="-2229.0038945903843" as="geometry">
            <mxPoint x="17" y="-38" as="offset" />
          </mxGeometry>
        </mxCell>
        <mxCell id="Rdy80Uj1urpBOmqLmSxv-198" value="1" style="resizable=0;html=1;whiteSpace=wrap;align=right;verticalAlign=bottom;" connectable="0" vertex="1" parent="1">
          <mxGeometry x="304.00459080048824" y="-2233.0038945903843" as="geometry">
            <mxPoint x="17" y="-38" as="offset" />
          </mxGeometry>
        </mxCell>
        <mxCell id="Rdy80Uj1urpBOmqLmSxv-199" value="1" style="resizable=0;html=1;whiteSpace=wrap;align=right;verticalAlign=bottom;" connectable="0" vertex="1" parent="1">
          <mxGeometry x="351.00459080048824" y="-2237.0038945903843" as="geometry">
            <mxPoint x="17" y="-38" as="offset" />
          </mxGeometry>
        </mxCell>
        <mxCell id="Rdy80Uj1urpBOmqLmSxv-202" value="1" style="resizable=0;html=1;whiteSpace=wrap;align=right;verticalAlign=bottom;" connectable="0" vertex="1" parent="1">
          <mxGeometry x="183.00459080048824" y="-2383.0038945903843" as="geometry">
            <mxPoint x="17" y="-38" as="offset" />
          </mxGeometry>
        </mxCell>
        <mxCell id="Rdy80Uj1urpBOmqLmSxv-203" value="1" style="resizable=0;html=1;whiteSpace=wrap;align=right;verticalAlign=bottom;" connectable="0" vertex="1" parent="1">
          <mxGeometry x="301.00459080048824" y="-2385.0038945903843" as="geometry">
            <mxPoint x="17" y="-38" as="offset" />
          </mxGeometry>
        </mxCell>
        <mxCell id="Rdy80Uj1urpBOmqLmSxv-207" value="1" style="resizable=0;html=1;whiteSpace=wrap;align=right;verticalAlign=bottom;" connectable="0" vertex="1" parent="1">
          <mxGeometry x="425.00459080048824" y="-2383.0038945903843" as="geometry">
            <mxPoint x="17" y="-38" as="offset" />
          </mxGeometry>
        </mxCell>
      </root>
    </mxGraphModel>
  </diagram>
</mxfile>
